<?xml version="1.0" encoding="utf-8"?>
<!-- Generator: Adobe Illustrator 25.1.0, SVG Export Plug-In . SVG Version: 6.00 Build 0)  -->
<svg version="1.1" id="Layer_1" xmlns="http://www.w3.org/2000/svg" xmlns:xlink="http://www.w3.org/1999/xlink" x="0px" y="0px"
	 viewBox="0 0 30 30" style="enable-background:new 0 0 30 30;" xml:space="preserve">
<style type="text/css">
	.st0{fill:none;stroke:#000000;stroke-width:0.6388;stroke-miterlimit:10;}
	.st1{fill:#4B4B4B;stroke:#000000;stroke-width:0.2738;stroke-miterlimit:10;}
	.st2{fill:none;stroke:#000000;stroke-width:0.2738;stroke-miterlimit:10;}
	.st3{stroke:#000000;stroke-width:0.2738;stroke-miterlimit:10;}
</style>
<path class="st0" d="M21.05,27.15H9.55c-0.88,0-1.59-0.71-1.59-1.59V3.9c0-0.88,0.71-1.59,1.59-1.59h11.5
	c0.88,0,1.59,0.71,1.59,1.59v21.66C22.64,26.44,21.93,27.15,21.05,27.15z"/>
<path class="st1" d="M20.39,23.8H10.17c-0.59,0-1.07-0.48-1.07-1.07V5.87c0-0.59,0.48-1.07,1.07-1.07h10.22
	c0.59,0,1.07,0.48,1.07,1.07v16.85C21.46,23.32,20.98,23.8,20.39,23.8z"/>
<path class="st2" d="M16.42,25.9h-2.43c-0.18,0-0.33-0.15-0.33-0.33v-0.56c0-0.18,0.15-0.33,0.33-0.33h2.43
	c0.18,0,0.33,0.15,0.33,0.33v0.56C16.75,25.75,16.6,25.9,16.42,25.9z"/>
<path class="st3" d="M15.94,3.99h-1.44c-0.14,0-0.25-0.11-0.25-0.25V3.72c0-0.14,0.11-0.25,0.25-0.25h1.44
	c0.14,0,0.25,0.11,0.25,0.25v0.03C16.19,3.88,16.08,3.99,15.94,3.99z"/>
</svg>
